<svg width="5425" height="5425" viewBox="0 0 5425 5425" fill="none" xmlns="http://www.w3.org/2000/svg">
<g clip-path="url(#clip0_2255_149)">
<path opacity="0.15" d="M2694.89 4489.73C4079.47 4489.73 5201.9 4379.57 5201.9 4243.67C5201.9 4107.78 4079.47 3997.62 2694.89 3997.62C1310.31 3997.62 187.883 4107.78 187.883 4243.67C187.883 4379.57 1310.31 4489.73 2694.89 4489.73Z" fill="#B2C3FB"/>
<path opacity="0.15" d="M301.094 4207.9C301.094 4207.9 -347.543 3995.46 543.975 2604.73C1435.49 1214.01 3559.35 514.342 4642.03 1203.16C5724.7 1891.98 5187.94 4049.45 4217.98 4229.82L301.094 4207.9Z" fill="#B2C3FB"/>
<path d="M3836.13 1396.88H3557.46C3543.33 1396.88 3533 1385.43 3534.38 1371.3L3548.34 1228.76C3549.72 1214.64 3562.3 1203.18 3576.43 1203.18H3855.1C3869.22 1203.18 3879.55 1214.63 3878.17 1228.76L3864.22 1371.3C3862.83 1385.42 3850.25 1396.88 3836.13 1396.88Z" fill="#C6D3FF"/>
<path d="M4217.99 4229.83H2620.97C2563.61 4229.83 2521.67 4183.33 2527.28 4125.97L2782.23 1521.5C2787.84 1464.14 2838.9 1417.64 2896.25 1417.64H4493.28C4550.64 1417.64 4592.58 1464.14 4586.97 1521.5L4332.02 4125.97C4326.4 4183.33 4275.35 4229.83 4217.99 4229.83Z" fill="url(#paint0_linear_2255_149)"/>
<path d="M4147.83 4080.55H2720.35C2669.08 4080.55 2631.58 4038.98 2636.6 3987.73L2864.48 1659.74C2869.5 1608.47 2915.14 1566.9 2966.39 1566.9H4393.88C4445.15 1566.9 4482.63 1608.47 4477.62 1659.74L4249.74 3987.73C4244.74 4039 4199.1 4080.55 4147.83 4080.55Z" fill="#EAF0FF"/>
<path d="M4011.62 1643.69H3333.65C3304.65 1643.69 3283.44 1620.19 3286.28 1591.19L3309.65 1352.52C3312.48 1323.52 3338.29 1300.02 3367.28 1300.02H4045.25C4074.25 1300.02 4095.46 1323.52 4092.62 1352.52L4069.26 1591.19C4066.42 1620.19 4040.61 1643.69 4011.62 1643.69Z" fill="url(#paint1_linear_2255_149)"/>
<path d="M4230.96 2236.12H3853.93L4060.89 2047.62L4267.87 1859.09L4230.96 2236.12Z" fill="#B2C3FB"/>
<path d="M3022.61 1859.09H3651.55" stroke="#B2C3FB" stroke-width="0.8572" stroke-miterlimit="10" stroke-linecap="round" stroke-linejoin="round"/>
<path d="M3014.18 1945.14H3643.12" stroke="#B2C3FB" stroke-width="0.8572" stroke-miterlimit="10" stroke-linecap="round" stroke-linejoin="round"/>
<path d="M3005.77 2031.18H3634.7" stroke="#B2C3FB" stroke-width="0.8572" stroke-miterlimit="10" stroke-linecap="round" stroke-linejoin="round"/>
<path d="M2997.35 2117.23H3626.28" stroke="#B2C3FB" stroke-width="0.8572" stroke-miterlimit="10" stroke-linecap="round" stroke-linejoin="round"/>
<path d="M2988.93 2203.28H3617.85" stroke="#B2C3FB" stroke-width="0.8572" stroke-miterlimit="10" stroke-linecap="round" stroke-linejoin="round"/>
<path d="M4163.59 2924.43H3786.55L3823.46 2547.4H4200.49L4163.59 2924.43Z" fill="#B2C3FB"/>
<path d="M2955.23 2547.4H3584.17" stroke="#B2C3FB" stroke-width="0.8572" stroke-miterlimit="10" stroke-linecap="round" stroke-linejoin="round"/>
<path d="M2946.81 2633.45H3575.75" stroke="#B2C3FB" stroke-width="0.8572" stroke-miterlimit="10" stroke-linecap="round" stroke-linejoin="round"/>
<path d="M2938.4 2719.49H3567.33" stroke="#B2C3FB" stroke-width="0.8572" stroke-miterlimit="10" stroke-linecap="round" stroke-linejoin="round"/>
<path d="M2929.98 2805.52H3558.9" stroke="#B2C3FB" stroke-width="0.8572" stroke-miterlimit="10" stroke-linecap="round" stroke-linejoin="round"/>
<path d="M2921.55 2891.58H3550.48" stroke="#B2C3FB" stroke-width="0.8572" stroke-miterlimit="10" stroke-linecap="round" stroke-linejoin="round"/>
<path d="M4096.21 3612.74H3719.18L3926.15 3424.22L4133.12 3235.69L4096.21 3612.74Z" fill="#B2C3FB"/>
<path d="M2887.87 3235.7H3516.79" stroke="#B2C3FB" stroke-width="0.8572" stroke-miterlimit="10" stroke-linecap="round" stroke-linejoin="round"/>
<path d="M2879.44 3321.74H3508.37" stroke="#B2C3FB" stroke-width="0.8572" stroke-miterlimit="10" stroke-linecap="round" stroke-linejoin="round"/>
<path d="M2871.02 3407.79H3499.95" stroke="#B2C3FB" stroke-width="0.8572" stroke-miterlimit="10" stroke-linecap="round" stroke-linejoin="round"/>
<path d="M2862.6 3493.83H3491.52" stroke="#B2C3FB" stroke-width="0.8572" stroke-miterlimit="10" stroke-linecap="round" stroke-linejoin="round"/>
<path d="M2854.17 3579.88H3483.1" stroke="#B2C3FB" stroke-width="0.8572" stroke-miterlimit="10" stroke-linecap="round" stroke-linejoin="round"/>
<path d="M4790.98 3821.54C4790.98 3821.54 4952.47 3045.04 4790.05 2454.63C4473.48 2996.53 4479.83 3662.52 4479.83 3662.52L4790.98 3821.54Z" fill="#C6D3FF"/>
<path d="M4951.11 3770.28C4951.11 3770.28 5227.83 3362.09 5238.2 2749.83C4781.87 3180.68 4600.46 3821.52 4600.46 3821.52L4951.11 3770.28Z" fill="#B2C3FB"/>
<path d="M4776.98 3863.94C4776.98 3863.94 4665.52 3770.56 4730.38 3649.2C4730.38 3649.2 4705.07 3559.96 4762.99 3498.1C4762.99 3498.1 4699.49 3430.12 4769.66 3348.96C4769.66 3348.96 4740.45 3234.96 4790.99 3166.27C4853.31 3237.88 4854.9 3307.58 4854.9 3307.58C4854.9 3307.58 4914.83 3336.98 4904.2 3407.18C4971.48 3466.89 4943.84 3540.22 4943.84 3540.22C4943.84 3540.22 5122.01 3678.67 5020.88 3811.27C4919.74 3943.86 4776.98 3863.94 4776.98 3863.94Z" fill="#D7E0FF"/>
<path opacity="0.15" d="M4790.99 3166.27L4902.63 3868.26" stroke="black" stroke-width="0.4286" stroke-miterlimit="10"/>
<path d="M4902.68 3878.38C4902.68 3878.38 4895.76 3733.14 5028.94 3698.53C5028.94 3698.53 5077.37 3619.43 5162.11 3620.06C5162.11 3620.06 5169.02 3527.3 5276.26 3523.83C5276.26 3523.83 5340.25 3425.06 5425 3415.64C5414.62 3510 5364.46 3558.43 5364.46 3558.43C5364.46 3558.43 5383.5 3622.42 5324.68 3662.2C5326.41 3752.14 5253.78 3781.54 5253.78 3781.54C5253.78 3781.54 5272.81 4006.38 5106.77 4021.95C4940.72 4037.5 4902.68 3878.38 4902.68 3878.38Z" fill="#C6D3FF"/>
<path opacity="0.15" d="M5424.98 3415.64L4978.77 3972.03" stroke="black" stroke-width="0.4286" stroke-miterlimit="10"/>
<path d="M4627.68 3770.28C4627.68 3770.28 4630.91 3769.48 4636.67 3768.17C4669.24 3760.8 4782.72 3737.26 4852.91 3750.03C4935.53 3765.07 4942.45 3849.81 4942.45 3849.81C4942.45 3849.81 5025.47 3810.03 5053.14 3868.83C5080.8 3927.63 5070.44 3953.58 5070.44 3953.58C5070.44 3953.58 5132.7 3931.04 5153.45 3998.52C5174.21 4066 5153.45 4086.75 5153.45 4086.75C5153.45 4086.75 5243.39 4059.41 5264.14 4113.73C5284.89 4168.04 5264.14 4197.69 5264.14 4197.69C5264.14 4197.69 5347.16 4150.26 5354.08 4235.25H4574.05L4627.68 3770.28Z" fill="#B2C3FB"/>
<path d="M4642.04 3314.82H4283.45V3673.41H4642.04V3314.82Z" fill="#B2C3FB"/>
<path d="M4723.9 3673.41H4365.31V4032H4723.9V3673.41Z" fill="url(#paint2_linear_2255_149)"/>
<path d="M4850.16 4014.72H4491.57V4226.87H4850.16V4014.72Z" fill="#D7E0FF"/>
<path d="M634.011 3821.54C634.011 3821.54 472.518 3045.04 634.94 2454.63C951.513 2996.53 945.161 3662.52 945.161 3662.52L634.011 3821.54Z" fill="#C6D3FF"/>
<path d="M473.885 3770.28C473.885 3770.28 197.159 3362.09 186.789 2749.83C643.124 3180.68 824.529 3821.52 824.529 3821.52L473.885 3770.28Z" fill="#B2C3FB"/>
<path d="M648.023 3863.94C648.023 3863.94 759.477 3770.56 694.624 3649.2C694.624 3649.2 719.932 3559.96 662.008 3498.1C662.008 3498.1 725.506 3430.12 655.342 3348.96C655.342 3348.96 684.555 3234.96 634.013 3166.27C571.695 3237.88 570.101 3307.58 570.101 3307.58C570.101 3307.58 510.169 3336.98 520.802 3407.18C453.525 3466.89 481.157 3540.22 481.157 3540.22C481.157 3540.22 302.991 3678.67 404.126 3811.27C505.26 3943.86 648.023 3863.94 648.023 3863.94Z" fill="#D7E0FF"/>
<path opacity="0.15" d="M634.01 3166.27L522.368 3868.26" stroke="black" stroke-width="0.4286" stroke-miterlimit="10"/>
<path d="M522.319 3878.38C522.319 3878.38 529.236 3733.14 396.064 3698.53C396.064 3698.53 347.631 3619.43 262.892 3620.06C262.892 3620.06 255.975 3527.3 148.739 3523.83C148.739 3523.83 84.7516 3425.06 0 3415.64C10.3821 3510 60.5351 3558.43 60.5351 3558.43C60.5351 3558.43 41.5159 3622.42 100.318 3662.2C98.586 3752.14 171.236 3781.54 171.236 3781.54C171.236 3781.54 152.204 4006.38 318.242 4021.95C484.268 4037.5 522.319 3878.38 522.319 3878.38Z" fill="#C6D3FF"/>
<path opacity="0.15" d="M0 3415.64L446.217 3972.03" stroke="black" stroke-width="0.4286" stroke-miterlimit="10"/>
<path d="M797.313 3770.28C797.313 3770.28 794.087 3769.47 788.325 3768.17C755.76 3760.8 642.272 3737.26 572.083 3750.03C489.466 3765.07 482.549 3849.81 482.549 3849.81C482.549 3849.81 399.53 3810.02 371.861 3868.83C344.192 3927.63 354.561 3953.58 354.561 3953.58C354.561 3953.58 292.294 3931.04 271.542 3998.52C250.791 4066 271.542 4086.75 271.542 4086.75C271.542 4086.75 181.606 4059.41 160.854 4113.73C140.103 4168.04 160.854 4197.69 160.854 4197.69C160.854 4197.69 77.8352 4150.26 70.918 4235.25H850.944L797.313 3770.28Z" fill="#B2C3FB"/>
<path d="M5358.65 4226.84H31.1357V4243.67H5358.65V4226.84Z" fill="#B2C3FB"/>
<path d="M1889.37 2962.51L1713.03 2983.44C1690.27 2986.14 1669.62 2969.88 1666.92 2947.11L1492.42 1476.96C1489.72 1454.2 1505.98 1433.55 1528.75 1430.85L1705.09 1409.92C1727.85 1407.22 1748.5 1423.48 1751.2 1446.25L1925.7 2916.4C1928.38 2939.16 1912.13 2959.82 1889.37 2962.51Z" fill="#B2C3FB"/>
<path d="M1582.91 1574.2L1505.05 1583.44L1502.88 1565.13L1580.74 1555.89L1582.91 1574.2Z" fill="url(#paint3_linear_2255_149)"/>
<path d="M1599.58 1714.58L1521.72 1723.82L1519.54 1705.5L1597.4 1696.26L1599.58 1714.58Z" fill="url(#paint4_linear_2255_149)"/>
<path d="M1616.25 1854.96L1538.39 1864.2L1536.21 1845.87L1614.07 1836.63L1616.25 1854.96Z" fill="url(#paint5_linear_2255_149)"/>
<path d="M1632.9 1995.32L1555.04 2004.57L1552.87 1986.24L1630.73 1977L1632.9 1995.32Z" fill="url(#paint6_linear_2255_149)"/>
<path d="M1649.56 2135.7L1571.7 2144.94L1569.53 2126.63L1647.39 2117.39L1649.56 2135.7Z" fill="url(#paint7_linear_2255_149)"/>
<path d="M1666.23 2276.08L1588.37 2285.32L1586.2 2267L1664.05 2257.76L1666.23 2276.08Z" fill="url(#paint8_linear_2255_149)"/>
<path opacity="0.15" d="M1680.72 2398.01L1602.87 2407.25L1605.04 2425.58L1682.89 2416.33L1680.72 2398.01Z" fill="black"/>
<path opacity="0.15" d="M1697.38 2538.38L1619.53 2547.62L1621.7 2565.95L1699.55 2556.71L1697.38 2538.38Z" fill="black"/>
<path opacity="0.15" d="M1714.04 2678.76L1636.19 2688L1638.37 2706.31L1716.22 2697.07L1714.04 2678.76Z" fill="black"/>
<path opacity="0.15" d="M1730.76 2819.07L1652.9 2828.32L1655.08 2846.64L1732.94 2837.4L1730.76 2819.07Z" fill="black"/>
<path d="M2139.15 2051.78L2123.39 2090.52L2067.43 2228.21L1887.93 2669.91L1872.64 2707.47L1793.18 2675.18L1810.34 2632.95L1960.19 2264.2L2043.92 2058.23L2059.68 2019.44L2139.15 2051.78Z" fill="url(#paint9_linear_2255_149)"/>
<path d="M2312.76 1760.33C2311.98 1745.07 2326.1 1669.21 2321.95 1609.86C2331.1 1567.88 2338.47 1502.47 2319.18 1494.62C2293.85 1484.33 2232.12 1577.34 2221.83 1602.67L2037.74 2055.68L2129.48 2092.97L2296.9 1680.99C2298.66 1718.52 2294.09 1745.75 2285.7 1773.88C2269.2 1829.31 2171.06 2056 2171.06 2056C2171.06 2056 2195.32 2049.32 2218.39 1992.55C2241.46 1935.78 2313.92 1783.35 2312.76 1760.33Z" fill="url(#paint10_linear_2255_149)"/>
<path opacity="0.15" d="M2067.43 2228.21L2016.42 2353.75H1923.83L1960.19 2264.22C1989.46 2256.83 2026.86 2245.49 2067.43 2228.21Z" fill="black"/>
<path d="M1987.84 1795.95L1785.19 2873.61L1670.93 2852.12L1873.56 1774.46L1987.84 1795.95Z" fill="url(#paint11_linear_2255_149)"/>
<path d="M1987.84 1795.95L1873.56 1774.46L1929.5 1669.73L1973.81 1678.06L1987.84 1795.95Z" fill="url(#paint12_linear_2255_149)"/>
<path d="M1973.82 1678.06L1929.5 1669.74L1964.84 1603.5L1964.91 1603.35L1973.82 1678.06Z" fill="url(#paint13_linear_2255_149)"/>
<path opacity="0.15" d="M1987.84 1795.95L1785.2 2873.61L1764.64 2353.72L1798.1 2291.81C1855.72 2185.19 1894.44 2069.39 1912.55 1949.55L1964.84 1603.5L1964.93 1603.35L1973.82 1678.06L1987.84 1795.95Z" fill="black"/>
<path d="M2265.53 3698.09H1716.66C1666.91 3698.09 1626.57 3657.75 1626.57 3608V2443.79C1626.57 2394.04 1666.91 2353.7 1716.66 2353.7H2265.53C2315.28 2353.7 2355.6 2394.04 2355.6 2443.79V3608C2355.6 3657.77 2315.28 3698.09 2265.53 3698.09Z" fill="#C0CEFF"/>
<path d="M2210.98 2443.81V3607.99C2210.98 3657.76 2170.62 3698.06 2120.91 3698.06H1572.03C1522.31 3698.06 1481.95 3657.76 1481.95 3607.99V2443.81C1481.95 2394.04 1522.31 2353.74 1572.03 2353.74H2120.91C2170.64 2353.74 2210.98 2394.05 2210.98 2443.81Z" fill="#D7E0FF"/>
<path opacity="0.15" d="M2210.98 3317.87V3608C2210.98 3657.78 2170.62 3698.08 2120.91 3698.08H1572.03C1522.31 3698.08 1481.95 3657.78 1481.95 3608V2540.68C1516.5 2543.48 1567.08 2556.83 1612.65 2604.77C1691.48 2687.58 1807.32 3197.24 1966.17 3296.35C2033.26 3338.21 2126.08 3335.3 2210.98 3317.87Z" fill="black"/>
<path d="M1931.25 3770.28H807.043V3998.53H1931.25V3770.28Z" fill="#C0CEFF"/>
<path d="M2574.62 3770.25H1931.23V3998.55H2574.62V3770.25Z" fill="#D7E0FF"/>
<path d="M2081.69 3998.58H735.057V4226.84H2081.69V3998.58Z" fill="#B2C3FB"/>
<path d="M2725.08 3998.56H2081.69V4226.85H2725.08V3998.56Z" fill="#C0CEFF"/>
<path d="M2106.55 3541.97H982.358V3770.28H2106.55V3541.97Z" fill="#B2C3FB"/>
<path d="M2749.95 3541.96H2106.56V3770.25H2749.95V3541.96Z" fill="#C0CEFF"/>
<g opacity="0.15">
<path d="M735.057 4226.84H1216.04C1228.51 4153.45 1253.91 4075.1 1285.12 3998.58H735.057V4226.84Z" fill="black"/>
<path d="M1048.64 3541.97C1025.62 3550.26 1003.55 3558.82 982.356 3567.96V3770.28H807.04V3998.53H1285.12C1318.05 3917.71 1357.54 3839 1395.27 3770.28C1468.23 3637.37 1534.68 3541.97 1534.68 3541.97H1048.64Z" fill="black"/>
</g>
<path d="M651.059 4152.26C617.917 4163.06 586.168 4218.65 542.104 4221.45C498.09 4224.3 296.8 4247.44 301.106 4207.89C302.286 4206.06 303.692 4204.18 305.199 4202.25C360.034 4131.81 607.435 3996.7 607.435 3996.7C607.435 3996.7 673.832 4026.4 701.752 4052.5C703.799 4054.39 705.631 4056.27 707.238 4058.15C730.538 4085.32 684.202 4141.5 651.059 4152.26Z" fill="url(#paint14_linear_2255_149)"/>
<path opacity="0.15" d="M651.059 4152.26C617.917 4163.07 586.168 4218.65 542.104 4221.45C498.09 4224.3 296.8 4247.44 301.106 4207.9C302.286 4206.06 303.692 4204.18 305.199 4202.25C358.252 4201.23 488.687 4197.68 526.939 4187.67C571.756 4175.88 672.163 4094.42 701.752 4052.5C703.799 4054.39 705.631 4056.27 707.238 4058.15C730.538 4085.32 684.202 4141.5 651.059 4152.26Z" fill="black"/>
<path d="M843.584 4140.1C835.889 4158.98 823.247 4176.75 810.542 4185.36C781.756 4204.94 766.742 4267.2 725.251 4282.21C683.71 4297.16 496.945 4375.63 490.003 4336.4C493.932 4323.75 502.695 4307.66 514.697 4289.53C576.901 4195.69 725.239 4048.14 725.239 4048.14C725.239 4048.14 808.27 4059.66 838.236 4079.24C855.046 4090.21 853.376 4116.1 843.584 4140.1Z" fill="url(#paint15_linear_2255_149)"/>
<path d="M1369.71 3505.66C1366.91 3527.4 1297.17 3565.6 1219.42 3601.76C1118.97 3648.41 1005.12 3691.72 1005.12 3691.72C1005.12 3691.72 980.36 3726.42 943.451 3774.64C878.937 3858.85 777.35 3984.33 705.73 4038.72C682.757 4056.1 662.896 4066.21 648.258 4065.36C612.103 4063.2 587.886 4048.68 572.068 4032.48C550.061 4010.1 543.985 3984.59 543.985 3984.59C543.985 3984.59 872.961 3526.09 898.257 3508.56C911.012 3499.73 978 3466 1041.33 3434.73C1103.8 3403.89 1162.67 3375.43 1162.67 3375.43C1162.67 3375.43 1252.63 3365.1 1320.01 3389.16C1333.35 3393.95 1345.83 3400.03 1356.54 3407.82C1356.54 3407.82 1376.16 3455.78 1369.71 3505.66Z" fill="url(#paint16_linear_2255_149)"/>
<path d="M1501.21 3510.83C1498.83 3545.42 1331.82 3631.08 1228.46 3680.86C1181.97 3703.24 1148.39 3718.35 1148.39 3718.35C1148.39 3718.35 901.092 4112.71 814.571 4112.71C731.602 4112.71 707.548 4044.27 705.716 4038.73C705.665 4038.47 705.603 4038.35 705.603 4038.35C705.603 4038.35 923.865 3692.15 1003.61 3577.65C1004.85 3575.88 1005.82 3574.47 1006.51 3573.51C1006.72 3573.18 1007 3572.8 1007.21 3572.49C1007.47 3572.11 1007.64 3571.95 1007.64 3571.95V3571.9C1019.36 3555.22 1027.55 3544.51 1030.77 3541.98C1040.52 3534.34 1083.61 3508.89 1131.82 3481.12C1203.65 3439.7 1286.74 3393.21 1286.74 3393.21C1286.74 3393.21 1299.87 3390.9 1319.99 3389.17C1362.61 3385.56 1436.38 3384.6 1482.23 3413.97C1482.23 3413.97 1504.66 3460.67 1501.21 3510.83Z" fill="url(#paint17_linear_2255_149)"/>
<path opacity="0.15" d="M1501.21 3510.83C1498.84 3545.43 1331.82 3631.08 1228.47 3680.86C1229.71 3651.37 1226.26 3625.12 1219.43 3601.76C1203.4 3546.82 1168.75 3508.08 1131.83 3481.12C1099.81 3457.71 1066.07 3443.25 1041.32 3434.74C1103.79 3403.91 1162.66 3375.45 1162.66 3375.45C1162.66 3375.45 1252.62 3365.11 1320 3389.17C1362.62 3385.56 1436.38 3384.6 1482.23 3413.97C1482.23 3413.97 1504.66 3460.67 1501.21 3510.83Z" fill="black"/>
<path d="M1690.84 3237.16C1668.08 3277.84 1625.57 3309.21 1572.73 3273.32C1508.54 3229.73 1383.92 3140.41 1302.88 3085.8C1265.98 3060.94 1238.16 3043.29 1229.12 3040.39C1229.12 3040.39 1187.63 3006.97 1248.7 2920.51C1309.83 2834.04 1299.44 2855.95 1287.93 2806.34C1276.42 2756.77 1261.41 2647.23 1382.48 2611.5C1503.55 2575.77 1538.15 2691.03 1541.59 2745.26C1545.02 2799.44 1601.53 2801.38 1606.15 2873.65C1610.77 2945.86 1685.73 2958.55 1683.42 3024.26C1681.11 3090.02 1681.11 3116.54 1704.18 3153.4C1714.19 3169.41 1708.33 3206 1690.84 3237.16Z" fill="url(#paint18_linear_2255_149)"/>
<path opacity="0.15" d="M1690.84 3237.16C1668.08 3277.84 1625.57 3309.21 1572.73 3273.32C1508.55 3229.73 1383.92 3140.41 1302.89 3085.8L1313.71 2818.16C1313.71 2818.16 1297.99 2741.22 1326.56 2707.48C1326.56 2707.48 1350.35 2737.67 1413.25 2732.92C1413.25 2732.92 1387.15 2728.19 1375.05 2707.53C1376.93 2708.07 1416.54 2720.28 1454.53 2712.64L1438.17 2730.17C1439.62 2729.04 1463.24 2711.34 1490.84 2750.67C1519.42 2791.35 1487.4 2863.13 1515.06 2899.45C1542.77 2935.77 1611.05 2937.49 1627.52 3046.46C1640.15 3130.35 1675.29 3206.54 1690.84 3237.16Z" fill="black"/>
<path d="M1612.49 3182.49C1612.49 3182.49 1612.49 3182.86 1612.44 3183.62C1612.17 3186.84 1611.9 3187.97 1611.9 3187.97C1611.9 3187.97 1545.01 3193.74 1502.4 3174.14C1502.4 3174.14 1496.97 3228.7 1496.43 3281.38C1484.21 3281.38 1455.59 3284.6 1424.1 3288.69C1369 3295.8 1305.19 3305.59 1305.19 3305.59L1313.69 3366.72C1313.69 3366.72 1318.8 3366.98 1327.68 3367.31C1359.75 3368.7 1440.89 3371.71 1504.54 3370.06C1514.44 3413.81 1521.16 3438.61 1503.52 3442.81C1485.6 3447.06 1389.93 3391.85 1204.3 3383.78C1187.02 3383.07 1168.94 3382.7 1150.11 3382.86C1092.7 3383.29 1156.47 3266.37 1163.41 3130.34C1163.41 3130.34 1173.63 3051.02 1235.94 2996.51C1246.06 2987.69 1257.52 2979.45 1270.59 2972.36C1364.01 2921.62 1419.37 2911.24 1488.52 2932C1542.22 2948.14 1572.99 2968.37 1590.53 3020.83C1595.64 3035.95 1599.57 3053.76 1602.7 3074.96C1612.7 3143.26 1613.03 3171.83 1612.49 3182.49Z" fill="url(#paint19_linear_2255_149)"/>
<path d="M1612.44 3183.62C1612.32 3190.35 1611.47 3225.86 1608.41 3263.41C1605.07 3304.68 1599.21 3348.31 1588.87 3358.65C1581.72 3365.75 1547.07 3368.93 1504.56 3370.06C1423.36 3372.15 1313.7 3366.72 1313.7 3366.72L1309.45 3336.31L1305.19 3305.59C1305.19 3305.59 1462.84 3281.38 1496.43 3281.38C1496.97 3228.7 1502.4 3174.14 1502.4 3174.14C1504.71 3175.22 1507.13 3176.19 1509.61 3177.1C1530.27 3184.9 1555.13 3187.7 1575.09 3188.45C1596.18 3189.32 1611.9 3187.98 1611.9 3187.98C1611.9 3187.98 1612.16 3186.85 1612.44 3183.62Z" fill="url(#paint20_linear_2255_149)"/>
<g opacity="0.15">
<path d="M1496.43 3281.39C1484.21 3281.39 1455.59 3284.62 1424.11 3288.71C1486.69 3195.19 1500.35 3058.57 1500.35 3058.57C1500.35 3058.57 1500.35 3058.57 1502.39 3065.46C1504.44 3072.4 1502.39 3174.15 1502.39 3174.15C1502.39 3174.15 1496.97 3228.71 1496.43 3281.39Z" fill="black"/>
<path d="M1503.53 3442.81C1485.62 3447.06 1389.95 3391.85 1204.31 3383.78C1201.46 3373.18 1217.33 3368.29 1262.54 3373.23C1286.54 3375.87 1308.17 3373.51 1327.7 3367.32C1359.78 3368.71 1440.91 3371.73 1504.56 3370.07C1514.46 3413.81 1521.18 3438.61 1503.53 3442.81Z" fill="black"/>
</g>
<path d="M1402.22 3370.13H1198.57C1189.02 3370.13 1181.26 3377.88 1181.26 3387.45C1181.26 3397 1189.01 3404.76 1198.57 3404.76H1402.22C1411.78 3404.76 1419.54 3397.01 1419.54 3387.45C1419.52 3377.88 1411.78 3370.13 1402.22 3370.13Z" fill="url(#paint21_linear_2255_149)"/>
<path d="M1313.69 3404.77H865.103C857.144 3404.77 850.039 3399.66 847.515 3392.13L756.851 3122.49C752.821 3110.49 761.747 3098.06 774.451 3098.06H1223.04C1230.79 3098.06 1237.68 3102.86 1240.37 3110.12C1240.48 3110.33 1240.53 3110.49 1240.58 3110.71L1264.04 3180.49L1306.06 3305.43L1315.53 3333.51L1327.79 3370.1L1331.23 3380.26C1335.32 3392.34 1326.35 3404.77 1313.69 3404.77Z" fill="url(#paint22_linear_2255_149)"/>
<path opacity="0.15" d="M1590.53 3020.84C1564.01 2978.39 1526.51 2962.35 1498.62 2964.29C1461.44 2966.87 1401.77 3049.04 1358.51 3037.79C1315.3 3026.54 1344.68 2978.98 1296.26 2981.56C1275.59 2982.69 1253.96 2989.31 1235.93 2996.53C1246.05 2987.7 1257.51 2979.46 1270.58 2972.37C1364 2921.63 1419.36 2911.25 1488.51 2932.01C1542.21 2948.16 1572.99 2968.39 1590.53 3020.84Z" fill="black"/>
<path d="M1464.3 2940.67C1461.18 2954.35 1444.93 2974.09 1425.61 2990.07C1405.86 3006.38 1382.89 3018.81 1367.45 3016.76C1336.94 3012.72 1377.83 2970.65 1384.77 2944.72C1391.67 2918.78 1379.01 2901.46 1379.01 2901.46C1379.01 2901.46 1355.33 2914.75 1334.62 2885.9C1317.4 2862.01 1308.52 2803.79 1316.81 2757.3C1318.53 2747.62 1320.95 2738.47 1324.23 2730.23C1324.23 2730.23 1352.47 2772.31 1393.42 2783.29C1434.31 2794.21 1459.12 2766.55 1475.26 2776.34C1491.41 2786.14 1474.67 2809.22 1463.16 2822.45C1451.66 2835.75 1470.65 2912.97 1464.3 2940.67Z" fill="url(#paint23_linear_2255_149)"/>
<path opacity="0.15" d="M1534.68 3311.95C1535.22 3320.56 1507.56 3302.69 1492.01 3301.56C1480.5 3300.71 1373.31 3308.13 1315.53 3333.53L1306.06 3305.44C1318.44 3303.56 1464.3 3281.39 1496.43 3281.39C1496.97 3228.71 1502.4 3174.15 1502.4 3174.15C1504.71 3175.23 1507.14 3176.2 1509.61 3177.12C1508.74 3201.55 1506.76 3277.47 1514.51 3288.71C1523.71 3302.15 1534.09 3303.28 1534.68 3311.95Z" fill="white"/>
<path opacity="0.15" d="M1612.44 3183.62C1612.33 3190.35 1611.47 3225.86 1608.41 3263.41C1599.1 3230.86 1584.62 3204.06 1575.11 3188.45C1596.2 3189.32 1611.91 3187.98 1611.91 3187.98C1611.91 3187.98 1612.16 3186.85 1612.44 3183.62Z" fill="black"/>
<path opacity="0.15" d="M705.617 4038.35C705.617 4038.35 705.667 4038.47 705.73 4038.73C682.756 4056.1 662.896 4066.22 648.258 4065.37C612.103 4063.21 587.886 4048.69 572.068 4032.49C598.005 4029.95 638.956 4020.33 681.401 3988.21C747.045 3938.55 970.668 3624.15 1003.6 3577.66C923.867 3692.15 705.617 4038.35 705.617 4038.35Z" fill="black"/>
<path opacity="0.15" d="M1264.03 3180.49L1240.57 3110.71C1240.51 3110.49 1240.45 3110.33 1240.35 3110.12C1249.18 3100.59 1257.46 3088.98 1263.7 3074.98C1263.7 3074.98 1260.32 3125.08 1264.03 3180.49Z" fill="black"/>
<path opacity="0.15" d="M1464.3 2940.67C1461.18 2954.35 1444.93 2974.09 1425.61 2990.07C1444.28 2952.58 1448.96 2903.23 1445.9 2884.72C1440.09 2850.17 1444.72 2831.13 1453.97 2817.9C1463.17 2804.6 1462.58 2789.06 1446.44 2795.94C1417.11 2808.53 1369.76 2791.37 1345.02 2771.18C1335.81 2763.65 1325.76 2759.51 1316.82 2757.3C1318.54 2747.62 1320.96 2738.47 1324.24 2730.23C1324.24 2730.23 1352.49 2772.31 1393.44 2783.29C1434.32 2794.21 1459.13 2766.55 1475.28 2776.34C1491.42 2786.14 1474.69 2809.22 1463.17 2822.45C1451.66 2835.75 1470.66 2912.97 1464.3 2940.67Z" fill="black"/>
<path opacity="0.15" d="M843.584 4140.1C835.889 4158.98 823.247 4176.75 810.542 4185.36C781.756 4204.94 766.742 4267.2 725.251 4282.21C683.71 4297.17 496.945 4375.63 490.003 4336.4C493.932 4323.75 502.695 4307.66 514.697 4289.53C515.4 4300.73 516.856 4311.97 519.969 4315.63C526.911 4323.7 703.344 4271.83 735.633 4241.87C767.922 4211.9 779.434 4171.54 800.198 4163.47C810.492 4159.47 827.817 4151.78 843.584 4140.1Z" fill="black"/>
<path d="M4597.07 3403.6H3389.86V4226.86H4597.07V3403.6Z" fill="url(#paint24_linear_2255_149)"/>
<path d="M3993.47 3631.88L4597.07 4226.84H3389.86L3993.47 3631.88Z" fill="url(#paint25_linear_2255_149)"/>
<path d="M3917.38 3923.55L3389.86 3403.59H4597.07L4069.56 3923.55C4027.36 3965.15 3959.58 3965.15 3917.38 3923.55Z" fill="url(#paint26_linear_2255_149)"/>
<path d="M3376.95 4226.35C3343 4245.6 3299.79 4233.77 3280.47 4199.82L3000.4 3707.59L2866.43 3472.08L2989.38 3402.13L3039.53 3490.27L3403.43 4129.88C3422.73 4163.83 3410.9 4207.04 3376.95 4226.35Z" fill="url(#paint27_linear_2255_149)"/>
<path opacity="0.74" d="M3112.16 3058.57C3112.16 3279.29 2933.19 3458.25 2712.48 3458.25C2491.77 3458.25 2312.85 3279.28 2312.85 3058.57C2312.85 2837.86 2491.76 2658.89 2712.48 2658.89C2933.2 2658.89 3112.16 2837.85 3112.16 3058.57Z" fill="#D7E0FF"/>
<path d="M3000.4 3707.59L2866.43 3472.08L2989.38 3402.13L3039.53 3490.27C3018.86 3539.45 2996.2 3615.69 3000.4 3707.59Z" fill="url(#paint28_linear_2255_149)"/>
<path d="M2712.48 2574.3C2445.05 2574.3 2228.21 2791.1 2228.21 3058.57C2228.21 3326.04 2445.05 3542.84 2712.48 3542.84C2979.95 3542.84 3196.75 3326.04 3196.75 3058.57C3196.75 2791.1 2979.95 2574.3 2712.48 2574.3ZM2712.48 3458.25C2491.75 3458.25 2312.85 3279.28 2312.85 3058.57C2312.85 2837.86 2491.75 2658.89 2712.48 2658.89C2933.2 2658.89 3112.16 2837.86 3112.16 3058.57C3112.16 3279.28 2933.19 3458.25 2712.48 3458.25Z" fill="url(#paint29_linear_2255_149)"/>
</g>
<defs>
<linearGradient id="paint0_linear_2255_149" x1="4208.13" y1="1276.38" x2="3661.32" y2="3600.41" gradientUnits="userSpaceOnUse">
<stop stop-color="#324893"/>
<stop offset="1" stop-color="#091D62"/>
</linearGradient>
<linearGradient id="paint1_linear_2255_149" x1="3797.32" y1="1023.98" x2="3762.26" y2="1795.56" gradientUnits="userSpaceOnUse">
<stop stop-color="#F05831"/>
<stop offset="1" stop-color="#E83B19"/>
</linearGradient>
<linearGradient id="paint2_linear_2255_149" x1="4365.32" y1="3852.7" x2="4723.9" y2="3852.7" gradientUnits="userSpaceOnUse">
<stop stop-color="#F05831"/>
<stop offset="1" stop-color="#E83B19"/>
</linearGradient>
<linearGradient id="paint3_linear_2255_149" x1="2060.05" y1="1510.04" x2="1139.93" y2="1616.12" gradientUnits="userSpaceOnUse">
<stop stop-color="#324893"/>
<stop offset="1" stop-color="#091D62"/>
</linearGradient>
<linearGradient id="paint4_linear_2255_149" x1="2076.23" y1="1650.47" x2="1156.13" y2="1756.55" gradientUnits="userSpaceOnUse">
<stop stop-color="#324893"/>
<stop offset="1" stop-color="#091D62"/>
</linearGradient>
<linearGradient id="paint5_linear_2255_149" x1="2092.43" y1="1790.9" x2="1172.31" y2="1896.98" gradientUnits="userSpaceOnUse">
<stop stop-color="#324893"/>
<stop offset="1" stop-color="#091D62"/>
</linearGradient>
<linearGradient id="paint6_linear_2255_149" x1="2108.61" y1="1931.33" x2="1188.51" y2="2037.41" gradientUnits="userSpaceOnUse">
<stop stop-color="#324893"/>
<stop offset="1" stop-color="#091D62"/>
</linearGradient>
<linearGradient id="paint7_linear_2255_149" x1="2124.81" y1="2071.76" x2="1204.69" y2="2177.84" gradientUnits="userSpaceOnUse">
<stop stop-color="#324893"/>
<stop offset="1" stop-color="#091D62"/>
</linearGradient>
<linearGradient id="paint8_linear_2255_149" x1="2140.99" y1="2212.19" x2="1220.89" y2="2318.26" gradientUnits="userSpaceOnUse">
<stop stop-color="#324893"/>
<stop offset="1" stop-color="#091D62"/>
</linearGradient>
<linearGradient id="paint9_linear_2255_149" x1="2014.2" y1="2778.33" x2="1915.63" y2="1927.03" gradientUnits="userSpaceOnUse">
<stop stop-color="#324893"/>
<stop offset="1" stop-color="#091D62"/>
</linearGradient>
<linearGradient id="paint10_linear_2255_149" x1="2263.65" y1="1711.46" x2="2003.15" y2="2230.68" gradientUnits="userSpaceOnUse">
<stop stop-color="#F05831"/>
<stop offset="1" stop-color="#E83B19"/>
</linearGradient>
<linearGradient id="paint11_linear_2255_149" x1="1605.8" y1="1809.89" x2="1890.83" y2="2465.35" gradientUnits="userSpaceOnUse">
<stop stop-color="#F05831"/>
<stop offset="1" stop-color="#E83B19"/>
</linearGradient>
<linearGradient id="paint12_linear_2255_149" x1="1969.9" y1="1531.42" x2="1872.68" y2="2160.76" gradientUnits="userSpaceOnUse">
<stop stop-color="#FFC1C2"/>
<stop offset="1" stop-color="#FF716F"/>
</linearGradient>
<linearGradient id="paint13_linear_2255_149" x1="2086.49" y1="1278.98" x2="1835.8" y2="2013.22" gradientUnits="userSpaceOnUse">
<stop stop-color="#324893"/>
<stop offset="1" stop-color="#091D62"/>
</linearGradient>
<linearGradient id="paint14_linear_2255_149" x1="414.43" y1="3966.28" x2="541.259" y2="4203.8" gradientUnits="userSpaceOnUse">
<stop stop-color="#324893"/>
<stop offset="1" stop-color="#091D62"/>
</linearGradient>
<linearGradient id="paint15_linear_2255_149" x1="493.089" y1="3980.85" x2="684.48" y2="4234.5" gradientUnits="userSpaceOnUse">
<stop stop-color="#324893"/>
<stop offset="1" stop-color="#091D62"/>
</linearGradient>
<linearGradient id="paint16_linear_2255_149" x1="694.139" y1="3359.84" x2="913.243" y2="3652.75" gradientUnits="userSpaceOnUse">
<stop stop-color="#114DBD"/>
<stop offset="1" stop-color="#063BA3"/>
</linearGradient>
<linearGradient id="paint17_linear_2255_149" x1="971.998" y1="3603.27" x2="1186.46" y2="3831.56" gradientUnits="userSpaceOnUse">
<stop stop-color="#114DBD"/>
<stop offset="1" stop-color="#063BA3"/>
</linearGradient>
<linearGradient id="paint18_linear_2255_149" x1="1489.39" y1="2633.91" x2="1461.71" y2="3097.41" gradientUnits="userSpaceOnUse">
<stop stop-color="#324893"/>
<stop offset="1" stop-color="#091D62"/>
</linearGradient>
<linearGradient id="paint19_linear_2255_149" x1="1126.36" y1="3182.49" x2="1612.65" y2="3182.49" gradientUnits="userSpaceOnUse">
<stop stop-color="#F05831"/>
<stop offset="1" stop-color="#E83B19"/>
</linearGradient>
<linearGradient id="paint20_linear_2255_149" x1="1541.05" y1="3390.41" x2="1385.39" y2="3160.38" gradientUnits="userSpaceOnUse">
<stop stop-color="#FFC1C2"/>
<stop offset="1" stop-color="#FF716F"/>
</linearGradient>
<linearGradient id="paint21_linear_2255_149" x1="1674.43" y1="3381.9" x2="1363.11" y2="3386.52" gradientUnits="userSpaceOnUse">
<stop stop-color="#324893"/>
<stop offset="1" stop-color="#091D62"/>
</linearGradient>
<linearGradient id="paint22_linear_2255_149" x1="1000.74" y1="3038.56" x2="1082.03" y2="3438.08" gradientUnits="userSpaceOnUse">
<stop stop-color="#324893"/>
<stop offset="1" stop-color="#091D62"/>
</linearGradient>
<linearGradient id="paint23_linear_2255_149" x1="1325.4" y1="2896.52" x2="1562.36" y2="2723.56" gradientUnits="userSpaceOnUse">
<stop stop-color="#FFC1C2"/>
<stop offset="1" stop-color="#FF716F"/>
</linearGradient>
<linearGradient id="paint24_linear_2255_149" x1="3964.64" y1="3279.06" x2="4016.53" y2="4244.13" gradientUnits="userSpaceOnUse">
<stop stop-color="#324893"/>
<stop offset="1" stop-color="#091D62"/>
</linearGradient>
<linearGradient id="paint25_linear_2255_149" x1="4163.56" y1="2256.61" x2="4039.03" y2="3699.04" gradientUnits="userSpaceOnUse">
<stop stop-color="#324893"/>
<stop offset="1" stop-color="#091D62"/>
</linearGradient>
<linearGradient id="paint26_linear_2255_149" x1="3997.96" y1="3221" x2="3983.51" y2="3808.56" gradientUnits="userSpaceOnUse">
<stop stop-color="#F05831"/>
<stop offset="1" stop-color="#E83B19"/>
</linearGradient>
<linearGradient id="paint27_linear_2255_149" x1="2870.93" y1="3094.12" x2="3251.44" y2="4111.12" gradientUnits="userSpaceOnUse">
<stop stop-color="#F05831"/>
<stop offset="1" stop-color="#E83B19"/>
</linearGradient>
<linearGradient id="paint28_linear_2255_149" x1="2894.6" y1="3325.16" x2="3016.02" y2="3649.69" gradientUnits="userSpaceOnUse">
<stop stop-color="#F05831"/>
<stop offset="1" stop-color="#E83B19"/>
</linearGradient>
<linearGradient id="paint29_linear_2255_149" x1="2786.23" y1="2132.55" x2="2661.7" y2="3696.04" gradientUnits="userSpaceOnUse">
<stop stop-color="#114DBD"/>
<stop offset="1" stop-color="#063BA3"/>
</linearGradient>
<clipPath id="clip0_2255_149">
<rect width="5425" height="5425" fill="white"/>
</clipPath>
</defs>
</svg>
