<svg id="Layer_1" data-name="Layer 1" xmlns="http://www.w3.org/2000/svg" viewBox="0 0 734.39 570.44"><path d="M303.59,633a78.13,78.13,0,0,1-29.13-5.3,68.63,68.63,0,0,1-23.13-15,66.57,66.57,0,0,1-15.12-23,78.55,78.55,0,0,1-5.31-29.34,73.07,73.07,0,0,1,5.61-28.84A69.92,69.92,0,0,1,252,508.57a70.65,70.65,0,0,1,23.43-15.12,78.88,78.88,0,0,1,29.54-5.4,75,75,0,0,1,19.62,2.6,68.23,68.23,0,0,1,17.92,7.71,59.85,59.85,0,0,1,14.32,12.12L336,534.31a59.87,59.87,0,0,0-8.92-7.71,37.75,37.75,0,0,0-10.31-5.11,39.07,39.07,0,0,0-12-1.8,39.64,39.64,0,0,0-15.12,2.9A36.7,36.7,0,0,0,269,543.72a46.06,46.06,0,0,0-3,17,44.68,44.68,0,0,0,3,16.72,37.88,37.88,0,0,0,8.41,12.92,35.38,35.38,0,0,0,13.12,8.21,49.71,49.71,0,0,0,17.12,2.8,41,41,0,0,0,12.21-1.8,44.16,44.16,0,0,0,10.72-4.91,45.23,45.23,0,0,0,8.71-7.1l16.42,26a47.21,47.21,0,0,1-13.32,10,80.35,80.35,0,0,1-18.42,6.91A84.25,84.25,0,0,1,303.59,633Z" transform="translate(-147.32 -210.01)"/><path d="M444.37,632.23q-17.42,0-31-7.11A53.68,53.68,0,0,1,392,605.6q-7.72-12.42-7.71-28.44V490.85h34.44v84.51a27.7,27.7,0,0,0,3.4,13.72,25.43,25.43,0,0,0,9.22,9.61,24.65,24.65,0,0,0,13,3.5,25.94,25.94,0,0,0,13.52-3.5,26.71,26.71,0,0,0,9.51-9.61A26.43,26.43,0,0,0,471,575.36V490.85h33.24v86.31a52.8,52.8,0,0,1-7.71,28.44,53.77,53.77,0,0,1-21.33,19.52Q461.59,632.23,444.37,632.23Z" transform="translate(-147.32 -210.01)"/><path d="M544.9,631V490.85h97.73v29H578V602h66.68v29Zm16-57.47V545.92h72.7v27.64Z" transform="translate(-147.32 -210.01)"/><path d="M710.92,631V520.89H669.26v-30H787.62v30H745V631Z" transform="translate(-147.32 -210.01)"/><path d="M209.42,780.45a65,65,0,0,1-25-4.68,56.33,56.33,0,0,1-19.62-13.41,61.91,61.91,0,0,1-12.87-20.7,72.56,72.56,0,0,1-4.59-26.19,65.5,65.5,0,0,1,4.86-25.38,64.22,64.22,0,0,1,13.5-20.52,61.25,61.25,0,0,1,20.16-13.68,63.71,63.71,0,0,1,25-4.86,59.4,59.4,0,0,1,17.82,2.7,62,62,0,0,1,15.84,7.47,49.77,49.77,0,0,1,12.06,11.07l-14.94,16.38a59.72,59.72,0,0,0-9.63-8.19,40.7,40.7,0,0,0-10.26-5,35.31,35.31,0,0,0-10.89-1.71,39.82,39.82,0,0,0-15.57,3.06,36.89,36.89,0,0,0-12.6,8.64,41.1,41.1,0,0,0-8.37,13.23,45.43,45.43,0,0,0-3.06,17,47.9,47.9,0,0,0,3,17.28,38.3,38.3,0,0,0,8.46,13.32,36.93,36.93,0,0,0,13.14,8.55,46.13,46.13,0,0,0,16.83,3,41.46,41.46,0,0,0,21.87-6.21,48.73,48.73,0,0,0,8.73-6.93l11.52,18.54A42.85,42.85,0,0,1,243.26,772a67.65,67.65,0,0,1-16.11,6.21A72.19,72.19,0,0,1,209.42,780.45Z" transform="translate(-147.32 -210.01)"/><path d="M328.94,780.45a63.71,63.71,0,0,1-25-4.86,60.59,60.59,0,0,1-33.3-34.2,74.12,74.12,0,0,1,0-51.84,60.59,60.59,0,0,1,33.3-34.2,67.3,67.3,0,0,1,50.22,0,59.3,59.3,0,0,1,20,13.68,63,63,0,0,1,13.14,20.61,73.37,73.37,0,0,1,0,51.57,62.81,62.81,0,0,1-13.14,20.7,59.3,59.3,0,0,1-20,13.68A64.18,64.18,0,0,1,328.94,780.45Zm0-22.32A38.46,38.46,0,0,0,344.69,755,35.77,35.77,0,0,0,357,746a43.72,43.72,0,0,0,8.19-13.59,49.68,49.68,0,0,0,0-33.84A43.72,43.72,0,0,0,357,685a35.77,35.77,0,0,0-12.33-9,40.73,40.73,0,0,0-31.41,0,36.08,36.08,0,0,0-12.42,8.91,41.33,41.33,0,0,0-8.1,13.5,51.94,51.94,0,0,0,0,34.11,41.14,41.14,0,0,0,8.1,13.59A36.08,36.08,0,0,0,313.28,755,38.64,38.64,0,0,0,328.94,758.13Z" transform="translate(-147.32 -210.01)"/><path d="M412.82,778.65v-126h54.72a41.22,41.22,0,0,1,20.7,5.31,40.24,40.24,0,0,1,14.85,14.4,38.74,38.74,0,0,1,5.49,20.43,37.76,37.76,0,0,1-5.49,19.89,40.44,40.44,0,0,1-14.76,14.4,41.07,41.07,0,0,1-20.79,5.31H435.68v46.26Zm22.86-66.6h32a16.73,16.73,0,0,0,9.09-2.43,16.48,16.48,0,0,0,6-6.75,21,21,0,0,0,2.16-9.54,18.25,18.25,0,0,0-10.26-17.1,23.9,23.9,0,0,0-11.16-2.52h-27.9Zm50.22,66.6-32-56.88,24.12-4.5,35.64,61.56Z" transform="translate(-147.32 -210.01)"/><path d="M533.78,778.65v-126h21.06l73.08,98.46-4,.72q-.72-5-1.26-10.35t-1-11.07q-.45-5.76-.72-12.06t-.45-13.23q-.18-6.93-.18-14.67v-37.8h23.22v126H622.16l-73.44-97,4.68-1.26q.9,10.08,1.53,17.19t1,12.24q.36,5.13.63,8.55t.36,6.21q.09,2.79.09,5.31v48.78Z" transform="translate(-147.32 -210.01)"/><path d="M672.92,778.65v-126h82.44v21.24H696v83.52h60.12v21.24Zm10.8-54V703.77h62.46v20.88Z" transform="translate(-147.32 -210.01)"/><path d="M780.92,778.65v-126h54.72a41.22,41.22,0,0,1,20.7,5.31,40.24,40.24,0,0,1,14.85,14.4,38.74,38.74,0,0,1,5.49,20.43,37.76,37.76,0,0,1-5.49,19.89,40.44,40.44,0,0,1-14.76,14.4,41.07,41.07,0,0,1-20.79,5.31H803.78v46.26Zm22.86-66.6h32a16.73,16.73,0,0,0,9.09-2.43,16.48,16.48,0,0,0,6-6.75,21,21,0,0,0,2.16-9.54,18.25,18.25,0,0,0-10.26-17.1,23.9,23.9,0,0,0-11.16-2.52h-27.9ZM854,778.65l-32-56.88,24.12-4.5,35.64,61.56Z" transform="translate(-147.32 -210.01)"/><path d="M451.74,415.67h161c13.44,0,24.34-7.69,24.34-17.18V348.27L531.74,389.8,427.4,348.27v50.22c-.07,1-.33,7.23,6.55,12.22C441.09,415.9,450.32,415.71,451.74,415.67Z" transform="translate(-147.32 -210.01)"/><path d="M364.15,391.14h5.69l.07-61.52-5.72-2.81Q364.18,359,364.15,391.14Z" transform="translate(-147.32 -210.01)"/><path d="M754.57,288.3,542.11,211.82a31.48,31.48,0,0,0-21.07,0l-210.6,75.81c-4.65,1.67-4.65,7,0,8.71L521,372.27a31.45,31.45,0,0,0,21.1,0l212.44-76.6C758.51,294.25,758.5,289.71,754.57,288.3Z" transform="translate(-147.32 -210.01)"/><path d="M427.5,401c-2.94,11.59,48.38,44.46,104.71,44.46S639.85,412.62,636.92,401c-1.3-5.19-13-4.92-108.23-4.9C440.34,396.06,428.79,395.84,427.5,401Z" transform="translate(-147.32 -210.01)"/><ellipse cx="220.37" cy="186.58" rx="10.37" ry="10.4"/><path d="M359.17,399.56h15a5.83,5.83,0,0,1,5.83,5.83v7.74a11.59,11.59,0,0,1-11.59,11.59h-2.93a11.5,11.5,0,0,1-11.5-11.5v-8.52a5.15,5.15,0,0,1,5.15-5.15Z" transform="translate(586.74 614.27) rotate(180)"/><path d="M683.43,386.3" transform="translate(-147.32 -210.01)"/></svg>