<svg width="30" height="30" viewBox="0 0 30 30" fill="none" xmlns="http://www.w3.org/2000/svg">
<mask id="path-1-outside-1_916_5" maskUnits="userSpaceOnUse" x="0" y="0" width="30" height="30" fill="black">
<rect fill="white" width="30" height="30"/>
<path d="M0 4H14C20.6274 4 26 9.37258 26 16V30H12C5.37258 30 0 24.6274 0 18V4Z"/>
</mask>
<path d="M0 4H14C20.6274 4 26 9.37258 26 16V30H12C5.37258 30 0 24.6274 0 18V4Z" fill="white"/>
<path d="M0 0H14C22.8366 0 30 7.16344 30 16H22C22 11.5817 18.4183 8 14 8H0V0ZM26 30H0H26ZM0 30V4V30ZM14 0C22.8366 0 30 7.16344 30 16V30H22V16C22 11.5817 18.4183 8 14 8V0Z" fill="#8555FD" mask="url(#path-1-outside-1_916_5)"/>
<path d="M0 0H14C22.8366 0 30 7.16344 30 16H22C22 11.5817 18.4183 8 14 8H0V0ZM26 30H0H26ZM0 30V4V30ZM14 0C22.8366 0 30 7.16344 30 16V30H22V16C22 11.5817 18.4183 8 14 8V0Z" fill="#8555FD" mask="url(#path-1-outside-1_916_5)"/>
<path d="M20.7793 10.9675C20.7613 10.1393 20.0754 9.48243 19.2471 9.50035L5.75031 9.79252C4.92207 9.81045 4.26519 10.4964 4.28312 11.3246C4.30105 12.1529 4.987 12.8097 5.81523 12.7918L17.8124 12.5321L18.0721 24.5293C18.0901 25.3575 18.776 26.0144 19.6042 25.9965C20.4325 25.9786 21.0893 25.2926 21.0714 24.4644L20.7793 10.9675ZM4.08337 29.0375L20.363 12.0375L18.1962 9.96255L1.91663 26.9626L4.08337 29.0375Z" fill="#8555FD"/>
<path d="M20.7793 10.9675C20.7613 10.1393 20.0754 9.48243 19.2471 9.50035L5.75031 9.79252C4.92207 9.81045 4.26519 10.4964 4.28312 11.3246C4.30105 12.1529 4.987 12.8097 5.81523 12.7918L17.8124 12.5321L18.0721 24.5293C18.0901 25.3575 18.776 26.0144 19.6042 25.9965C20.4325 25.9786 21.0893 25.2926 21.0714 24.4644L20.7793 10.9675ZM4.08337 29.0375L20.363 12.0375L18.1962 9.96255L1.91663 26.9626L4.08337 29.0375Z" fill="#8555FD"/>
</svg>
